<?xml version="1.0" encoding="UTF-8"?>
<!-- See: https://oktech.jp/articles/logo-and-design -->
<svg xmlns="http://www.w3.org/2000/svg" viewBox="0 0 100 100" width="256" height="256">
	<defs><style><![CDATA[
	#k { fill: #ffffff; }
	#r { fill: #fd4d69; fill: device-cmyk(0 83% 43% 0); }
	#g { fill: #49d773; fill: device-cmyk(58% 0 80% 0); }
	#b { fill: #459bc9; fill: device-cmyk(69% 26% 7% 0); }
    ]]></style></defs>
	<path id="k" d="M39.85,17.02l9.7,67.48c-16.71-.19-31.25-12.53-33.7-29.58-2.45-17.06,8.03-33,24-37.89Z" />
	<path id="r" d="M72.26,23.65c-5.94-5.02-13.55-8.02-21.67-8.15l3.77,26.19,17.91-18.03Z" />
	<path id="g" d="M82.85,60.57c1.56-4.84,2.08-10.1,1.31-15.48-.76-5.29-2.69-10.13-5.47-14.29l-18.13,18.26,22.3,11.51Z" />
	<path id="b" d="M56.68,57.87l3.6,25.07c7.68-2.39,14.08-7.34,18.37-13.73l-21.97-11.33Z" />
</svg>