<?xml version="1.0" encoding="UTF-8"?>
<!-- See: https://oktech.jp/articles/logo-and-design -->
<svg xmlns="http://www.w3.org/2000/svg" viewBox="0 0 500 130" width="500" height="130">
	<defs><style><![CDATA[
	path, polygon { fill: #fff; }
	#r { fill: #fd4d69; fill: device-cmyk(0 83% 43% 0); }
	#g { fill: #49d773; fill: device-cmyk(58% 0 80% 0); }
	#b { fill: #459bc9; fill: device-cmyk(69% 26% 7% 0); }
	]]></style></defs>
	<path d="M52.0369194,25 L64,107 C43.3914353,106.769117 25.4591475,91.7738589 22.4375446,71.0551274 C19.4159418,50.3242442 32.3410021,30.9543568 52.0369194,25.0121517 L52.0369194,25 Z" />
	<path id="r" d="M90.9880074,32.9579992 C83.8643911,26.8243604 74.7380074,23.1588393 65,23 L69.5212177,55 L91,32.9702176 L90.9880074,32.9579992 Z" />
	<path id="g" d="M103.988107,78 C105.876911,72.147128 106.506513,65.7863621 105.574218,59.2804837 C104.654032,52.8834397 102.317242,47.0305677 98.9512956,42 L77,64.0812899 L104.000215,78 L103.988107,78 Z" />
	<path id="b" d="M72,75 L76.4242148,106 C85.8625398,103.044675 93.7278107,96.9238133 99,89.0223375 L72,75.0123654 L72,75 Z" />
	<path d="M193.865076,43.0493145 C190.920008,40.1812973 187.479751,37.9418866 183.544306,36.3703704 C179.608861,34.7857581 175.269447,34 170.552125,34 C165.834804,34 161.482358,34.7857581 157.507819,36.3703704 C153.546311,37.9549826 150.093023,40.1812973 147.187049,43.0493145 C144.268043,45.9173317 142.013633,49.2960917 140.410786,53.1594025 C138.807939,57.0358093 138,61.3050952 138,65.993452 C138,70.6818089 138.807939,74.8856149 140.410786,78.7882136 C142.013633,82.6908124 144.268043,86.0695723 147.187049,88.9506855 C150.106055,91.8187027 153.546311,94.0450174 157.507819,95.6296296 C161.469326,97.2142419 165.821772,98 170.552125,98 C175.282478,98 179.608861,97.2142419 183.544306,95.6296296 C187.479751,94.0450174 190.920008,91.8187027 193.865076,88.9506855 C196.810144,86.0826683 199.077586,82.6908124 200.641339,78.7882136 C202.218123,74.8856149 203,70.5901371 203,65.9017802 C203,61.2134234 202.218123,57.0227133 200.641339,53.1463065 C199.064555,49.2698997 196.810144,45.9042357 193.865076,43.0362185 L193.865076,43.0493145 Z M184.247995,72.331901 C183.518244,74.2701044 182.488773,75.9594843 181.146552,77.386945 C179.80433,78.8275015 178.227546,79.9275629 176.416199,80.6871291 C174.604852,81.4466953 172.65016,81.8264784 170.552125,81.8264784 C168.45409,81.8264784 166.40818,81.4466953 164.596832,80.6871291 C162.785485,79.9275629 161.208701,78.8275015 159.86648,77.386945 C158.524258,75.9463884 157.494787,74.2701044 156.765036,72.331901 C156.035285,70.3936976 155.670409,68.2852466 155.670409,66.006548 C155.670409,63.7278494 156.035285,61.5408226 156.765036,59.6288111 C157.494787,57.7298956 158.524258,56.0536116 159.86648,54.613055 C161.208701,53.1724985 162.785485,52.0724371 164.596832,51.3128709 C166.40818,50.5533047 168.388933,50.1735216 170.552125,50.1735216 C172.715317,50.1735216 174.604852,50.5533047 176.416199,51.3128709 C178.227546,52.0724371 179.80433,53.1724985 181.146552,54.613055 C182.488773,56.0536116 183.518244,57.7298956 184.247995,59.668099 C184.977747,61.6063024 185.342622,63.7147534 185.342622,65.993452 C185.342622,68.2721506 184.977747,70.3936976 184.247995,72.318805 L184.247995,72.331901 Z" />
	<polygon points="265.796844 35 245.719271 35 226.441654 54.7434588 226.441654 35 209 35 209 97 226.441654 97 226.441654 74.1176345 228.854634 71.7172942 248.014225 97 268 97 239.726161 60.9025739" />
	<polygon points="325 35 270 35 270 50.1406084 288.528646 50.1406084 288.528646 97 305.846354 97 305.846354 50.1406084 325 50.1406084" />
	<path d="M361.926306,55.8081161 C359.924792,53.6221446 357.533373,51.9497447 354.765045,50.7645794 C351.996717,49.5794141 348.929462,49 345.563279,49 C342.197096,49 338.973879,49.6057511 336.088579,50.8172534 C333.20328,52.0287557 330.720883,53.7406611 328.628391,55.9529696 C326.535899,58.1652782 324.898296,60.7726418 323.741577,63.7750605 C322.571861,66.7774792 322,70.0564364 322,73.5987638 C322,78.3130879 323.052744,82.5138404 325.145236,86.2010212 C327.237728,89.8882021 330.214006,92.7721043 334.048075,94.8658963 C337.882144,96.9596883 342.457033,98 347.746749,98 C349.839241,98 351.905739,97.7761354 353.946244,97.3415748 C355.986748,96.8938457 358.027253,96.1959151 360.093751,95.2214458 C362.160249,94.2469766 364.213751,92.9432948 366.241259,91.2840634 L358.729082,80.5780704 C357.156464,81.7632357 355.687821,82.5796829 354.323152,83.053749 C352.958483,83.5278151 351.372868,83.7648482 349.566307,83.7648482 C346.83697,83.7648482 344.523531,83.290782 342.625992,82.3558183 C340.728453,81.4076861 339.311797,80.0908358 338.35003,78.3789304 C338.10309,77.9312013 337.882144,77.4571352 337.700188,76.9699006 L367.891858,76.9699006 L367.982836,73.2563827 C368.099807,69.7140554 367.618924,66.4746036 366.540186,63.5248589 C365.461448,60.5751142 363.92782,58.0072561 361.913309,55.8344531 L361.926306,55.8081161 Z M340.975393,63.5380274 C342.288074,62.7479172 343.925677,62.3396936 345.901197,62.3396936 C347.291859,62.3396936 348.552553,62.6030637 349.657285,63.1298038 C350.762017,63.6565439 351.645802,64.4071486 352.321638,65.3816178 C352.97148,66.3297501 353.309398,67.4359043 353.322395,68.7000806 L337.349273,68.7000806 C337.505235,68.081161 337.700188,67.4754098 337.960125,66.9355012 C338.661955,65.4606289 339.662712,64.3281376 340.975393,63.5380274 L340.975393,63.5380274 Z" />
	<path d="M392.46934,64.3766792 C393.92217,63.4946265 395.608491,63.0470177 397.528302,63.0470177 C398.981132,63.0470177 400.304245,63.2444922 401.497642,63.6262762 C402.691038,64.0080602 403.78066,64.5478238 404.766509,65.219237 C405.752358,65.9038152 406.569575,66.6542182 407.205189,67.470446 L416,56.8594841 C413.911557,54.3318109 411.10967,52.383396 407.59434,51.0274046 C404.079009,49.6714132 400.239387,49 396.049528,49 C391.457547,49 387.345519,50.0663622 383.726415,52.1859215 C380.09434,54.3054809 377.240566,57.2149382 375.139151,60.9011284 C373.050708,64.5873186 372,68.7869425 372,73.5 C372,78.2130575 373.050708,82.4126814 375.139151,86.0988716 C377.227594,89.7850618 380.09434,92.6813541 383.726415,94.8140785 C387.358491,96.9336378 391.457547,98 396.049528,98 C400.174528,98 403.988208,97.3154218 407.503538,95.9725954 C411.018868,94.616604 413.846698,92.707684 416,90.2195056 L407.205189,79.516389 C406.504717,80.3984417 405.674528,81.1620097 404.727594,81.8202579 C403.767689,82.4653412 402.691038,82.9656099 401.510613,83.3210639 C400.317217,83.676518 398.994104,83.8476625 397.541274,83.8476625 C395.621462,83.8476625 393.92217,83.3737238 392.443396,82.4390113 C390.964623,81.5042988 389.849057,80.2536271 389.083726,78.7264911 C388.331368,77.1993552 387.955189,75.4220849 387.955189,73.4210102 C387.955189,71.4199355 388.34434,69.6295003 389.135613,68.0760344 C389.913915,66.5094035 391.042453,65.2850618 392.495283,64.4030091 L392.46934,64.3766792 Z" />
	<path d="M466.097547,57.777666 C464.837992,54.9396378 462.988021,52.8078471 460.547633,51.3692153 C458.107245,49.9305835 455.128922,49.2112676 451.599544,49.2112676 C449.014832,49.2112676 446.548203,49.7082495 444.199658,50.7022133 C441.851112,51.6961771 439.817456,53.056338 438.124929,54.7826962 C438.098688,54.8088531 438.072447,54.8480885 438.033086,54.8873239 L438.033086,32 L422,32 L422,97 L438.479179,97 L438.479179,69.0643863 C438.479179,68.1227364 438.636623,67.2726358 438.964632,66.5140845 C439.292641,65.7555332 439.764974,65.0623742 440.420993,64.4476861 C441.06389,63.832998 441.811751,63.3752515 442.664575,63.0875252 C443.517399,62.7997988 444.435824,62.6428571 445.446092,62.6428571 C446.731888,62.5905433 447.847119,62.8128773 448.791786,63.3490946 C449.736452,63.8722334 450.431831,64.6569416 450.904164,65.6770624 C451.376497,66.6971831 451.612664,67.9788732 451.612664,69.4959759 L451.612664,96.9869215 L468,96.9869215 L468,68.1750503 C468,64.0814889 467.370222,60.6026157 466.110667,57.7645875 L466.097547,57.777666 Z" />
</svg>